<?xml version="1.0" encoding="UTF-8" standalone="no"?>
<!-- Created with sK1 2.0rc3 (http://sk1project.net/) -->

<svg
   xmlns:dc="http://purl.org/dc/elements/1.1/"
   xmlns:cc="http://creativecommons.org/ns#"
   xmlns:rdf="http://www.w3.org/1999/02/22-rdf-syntax-ns#"
   xmlns:svg="http://www.w3.org/2000/svg"
   xmlns="http://www.w3.org/2000/svg"
   xmlns:sodipodi="http://sodipodi.sourceforge.net/DTD/sodipodi-0.dtd"
   xmlns:inkscape="http://www.inkscape.org/namespaces/inkscape"
   height="40"
   viewBox="0 0 4199.9999 39.999998"
   width="4200"
   version="1.1"
   id="svg2"
   sodipodi:docname="arbor-lines-proto-colour-full.svg"
   inkscape:version="0.92.3 (2405546, 2018-03-11)">
  <metadata
     id="metadata31">
    <rdf:RDF>
      <cc:Work
         rdf:about="">
        <dc:format>image/svg+xml</dc:format>
        <dc:type
           rdf:resource="http://purl.org/dc/dcmitype/StillImage" />
        <dc:title></dc:title>
      </cc:Work>
    </rdf:RDF>
  </metadata>
  <defs
     id="defs29" />
  <sodipodi:namedview
     pagecolor="#ffffff"
     bordercolor="#666666"
     borderopacity="1"
     objecttolerance="10"
     gridtolerance="10"
     guidetolerance="10"
     inkscape:pageopacity="0"
     inkscape:pageshadow="2"
     inkscape:window-width="2519"
     inkscape:window-height="1385"
     id="namedview27"
     showgrid="false"
     units="px"
     inkscape:zoom="20.693924"
     inkscape:cx="4192.9858"
     inkscape:cy="20.363379"
     inkscape:window-x="41"
     inkscape:window-y="27"
     inkscape:window-maximized="1"
     inkscape:current-layer="svg2" />
  <g
     id="g14"
     transform="matrix(0.30075999,0,0,0.30075999,400.88412,-0.4650483)">
    <g
       id="g12">
      <path
         inkscape:connector-curvature="0"
         id="path2"
         d="m 297.309,43.887 v 4.0312 c -6.4922,-4.3086 -14.2305,-6.8437 -23.961,-6.8437 -23.582,0 -43.3984,19.8125 -43.3984,45.8711 0,25.8867 19.8164,46.0508 43.3984,46.0508 9.7305,0 17.4688,-2.6954 23.961,-7.0196 v 5.1446 h 29.168 V 43.887 Z m -18.0117,64.2695 c -11.8868,0 -20.711,-9.1601 -20.711,-21.2109 0,-12.0313 8.8242,-21.1914 20.711,-21.1914 6.3007,0 12.4297,1.6132 18.0117,7.7226 v 26.9531 c -5.582,6.0977 -11.711,7.7266 -18.0117,7.7266 z"
         style="fill:#000000" />
      <path
         inkscape:connector-curvature="0"
         id="path4"
         d="m 405.8988,42.012 c -12.957,0 -22.3242,4.1601 -30.0742,10.8437 V 43.887 h -29.3594 v 87.2344 h 29.3594 V 80.7932 c 6.8438,-6.6992 15.8555,-10.4961 30.0742,-11.039 z"
         style="fill:#000000" />
      <path
         inkscape:connector-curvature="0"
         id="path6"
         d="m 473.6957,42.012 c -9.5391,0 -17.2773,2.5351 -23.7695,6.6679 V 3.5549 h -29.3594 v 127.5665 h 29.3594 v -4.7774 c 6.4922,4.1328 14.2304,6.6524 23.7695,6.6524 23.5977,0 43.4141,-19.8008 43.4141,-45.5665 0,-25.6015 -19.8164,-45.4179 -43.4141,-45.4179 z m -5.7578,66.4961 c -6.3047,0 -12.6055,-1.586 -18.0117,-7.4336 V 74.137 c 5.4062,-5.8477 11.707,-7.4453 18.0117,-7.4453 11.8867,0 20.5312,9.0429 20.5312,20.7382 0,12.0469 -8.6445,21.0782 -20.5312,21.0782 z"
         style="fill:#000000" />
      <path
         inkscape:connector-curvature="0"
         id="path8"
         d="m 577.2582,41.0745 c -27.7305,0 -48.0859,19.6367 -48.0859,45.8711 0,26.6015 20.3554,46.0508 48.0859,46.0508 27.5547,0 47.9102,-19.4493 47.9102,-46.0508 0,-26.2344 -20.3555,-45.8711 -47.9102,-45.8711 z m 0,67.2578 c -12.2539,0 -20.3594,-8.9844 -20.3594,-21.1953 0,-11.8555 8.1055,-21.3828 20.3594,-21.3828 12.0625,0 20.168,9.5273 20.168,21.3828 0,12.2109 -8.1055,21.1953 -20.168,21.1953 z"
         style="fill:#000000" />
      <path
         inkscape:connector-curvature="0"
         id="path10"
         d="m 698.5551,42.012 c -12.9571,0 -22.3242,4.1601 -30.0781,10.8437 V 43.887 h -29.3555 v 87.2344 H 668.477 V 80.7932 c 6.8476,-6.6992 15.8593,-10.4961 30.0781,-11.039 z"
         style="fill:#000000" />
    </g>
  </g>
  <path
     inkscape:connector-curvature="0"
     id="path16"
     d="m 400.88412,30.914294 v 7.37289 l 62.03175,-0.0138 v -7.34534 z"
     style="fill:#d86310;fill-rule:evenodd;stroke-width:0.30076" />
  <path
     inkscape:connector-curvature="0"
     id="path18"
     d="m 437.89994,11.254574 c 0.33276,1.39577 0.63452,2.82985 0.92631,4.25422 0.21905,1.06926 0.42847,2.10177 0.63825,3.12637 l 23.45137,0.0209 v -7.37951 z"
     style="fill:#000000;fill-rule:evenodd;stroke-width:0.30076" />
  <path
     inkscape:connector-curvature="0"
     id="path20"
     d="m 400.88412,11.254574 v 7.40041 l 11.29447,-0.0198 c 0.55,-1.77941 1.00757,-4.29097 1.44175,-6.80839 0.0331,-0.19201 0.0652,-0.38076 0.0975,-0.5722 z"
     style="fill:#000000;fill-rule:evenodd;stroke-width:0.30076" />
  <path
     inkscape:connector-curvature="0"
     id="path22"
     d="m 425.04642,-0.4650483 c -0.62206,-7.22e-4 -1.24986,0.09633 -1.85975,0.319407 -1.95157,0.713884 -2.99529,2.232782 -3.64073,3.544908 -1.29083,2.624281 -1.65288,5.476327 -2.1439,8.3900273 -0.49099,2.91374 -1.01293,5.82464 -1.67966,7.57831 -0.33195,0.87314 -0.69857,1.40536 -0.83653,1.54639 h -14.00173 v 7.38279 h 14.09758 c 1.98511,0 3.92293,-0.94391 5.1513,-2.1874 1.22839,-1.24349 1.93671,-2.67042 2.48755,-4.1193 1.10169,-2.89776 1.57367,-6.08771 2.06021,-8.97489 0.32566,-1.93259 0.66324,-3.01352 0.99732,-4.2564103 0.13507,0.2982 0.25862,0.44897 0.3789,0.81614 0.64215,1.9605003 1.24181,4.6471603 1.80853,7.4136103 0.56672,2.76648 1.10731,5.61745 1.7485,8.11965 0.42915,1.67478 0.72197,3.15669 1.46984,4.57308 h 21.5613 c 2.94333,-0.91133 6.54063,-1.20773 10.27072,-1.32557 v -7.42134 c -5.26424,0.0839 -11.07302,0.49174 -16.26793,3.2646 -2.86988,1.53186 -5.19846,2.61649 -6.57269,2.90555 -1.37423,0.28906 -1.38139,0.32407 -2.18962,-0.50612 0.40479,0.41581 -0.57178,-1.17552 -1.12235,-3.32406 -0.55054,-2.14853 -1.08707,-4.93685 -1.66699,-7.76772 -0.57993,-2.83091 -1.19673,-5.7011803 -2.02496,-8.2297903 -0.8282,-2.528609 -1.50906,-4.929937 -4.25696,-6.614554 -0.77108,-0.472734 -1.6896,-0.853587 -2.65992,-1.026524 -0.36386,-0.06484 -0.73478,-0.100333 -1.10803,-0.100784 z"
     style="fill:#a53c00;fill-rule:evenodd;stroke-width:0.30076" />
  <rect
     style="opacity:1;fill:#000000;fill-opacity:1;stroke:none;stroke-width:11.37061691;stroke-miterlimit:4;stroke-dasharray:none;stroke-opacity:0.39215686"
     id="rect864"
     width="402.24127"
     height="7.4005008"
     x="-0.20758875"
     y="11.253761" />
  <rect
     style="opacity:1;fill:#a53c00;fill-opacity:1;stroke:none;stroke-width:11.38403606;stroke-miterlimit:4;stroke-dasharray:none;stroke-opacity:0.39215686"
     id="rect864-6"
     width="404.18332"
     height="7.3823328"
     x="-0.18764845"
     y="20.913277" />
  <rect
     style="opacity:1;fill:#d86310;fill-opacity:1;stroke:none;stroke-width:11.36846828;stroke-miterlimit:4;stroke-dasharray:none;stroke-opacity:0.39215686"
     id="rect864-6-4"
     width="403.50818"
     height="7.3744774"
     x="-0.11127165"
     y="30.913223" />
  <rect
     style="opacity:1;fill:#000000;fill-opacity:1;stroke:none;stroke-width:33.93183517;stroke-miterlimit:4;stroke-dasharray:none;stroke-opacity:0.39215686"
     id="rect864-3"
     width="3582.0642"
     height="7.4005008"
     x="618.01172"
     y="11.2686" />
  <rect
     style="opacity:1;fill:#a53c00;fill-opacity:1;stroke:none;stroke-width:33.89014053;stroke-miterlimit:4;stroke-dasharray:none;stroke-opacity:0.39215686"
     id="rect864-6-0"
     width="3582.0583"
     height="7.3823328"
     x="618.03162"
     y="20.928123" />
  <rect
     style="opacity:1;fill:#d86310;fill-opacity:1;stroke:none;stroke-width:33.87154388;stroke-miterlimit:4;stroke-dasharray:none;stroke-opacity:0.39215686"
     id="rect864-6-4-3"
     width="3581.9407"
     height="7.3744774"
     x="618.10803"
     y="30.92807" />
</svg>
